simulation
nRows=55
nColumns=15
endheader
time  TH_x TH_y TH_z SC_y  SC_z  SC_x  AC_y  AC_z  AC_x  GH_y  GH_z  GH_yy  EL_x  PS_y
1.120370  0.000000  0.000000  0.000000  -58.830306  13.252939  -1.573876  43.048302  24.964170  18.094451  -73.902636  61.402426  131.897124  60.546330  0.000000
1.124848  0.000000  0.000000  0.000000  -58.762249  13.221547  -1.499710  43.103349  24.917912  18.109598  -74.186994  61.248138  132.680761  60.704969  0.000000
1.129327  0.000000  0.000000  0.000000  -58.693463  13.189389  -1.424087  43.156250  24.880551  18.121221  -74.477719  61.080034  133.469069  60.866451  0.000000
1.133806  0.000000  0.000000  0.000000  -58.624487  13.156495  -1.347079  43.206678  24.853682  18.129441  -74.776032  60.897978  134.262823  61.030985  0.000000
1.140205  0.000000  0.000000  0.000000  -58.526777  13.108267  -1.234783  43.274306  24.835341  18.136514  -75.217148  60.615159  135.406627  61.271730  0.000000
1.146604  0.000000  0.000000  0.000000  -58.431580  13.058741  -1.119957  43.337315  24.840982  18.140700  -75.676986  60.309552  136.560281  61.519452  0.000000
1.153003  0.000000  0.000000  0.000000  -58.340422  13.008364  -1.002719  43.397400  24.867857  18.145918  -76.155178  59.987753  137.719091  61.774121  0.000000
1.159402  0.000000  0.000000  0.000000  -58.254474  12.958155  -0.883109  43.456605  24.910679  18.155855  -76.649944  59.656450  138.876294  62.035153  0.000000
1.165800  0.000000  0.000000  0.000000  -58.174518  12.909804  -0.760965  43.516193  24.963678  18.172490  -77.159216  59.319739  140.025392  62.301418  0.000000
1.172199  0.000000  0.000000  0.000000  -58.101127  12.865389  -0.635728  43.576137  25.022547  18.195651  -77.681820  58.978321  141.162216  62.571485  0.000000
1.177896  0.000000  0.000000  0.000000  -58.041861  12.830702  -0.520682  43.629179  25.077955  18.220665  -78.158334  58.669814  142.162608  62.814009  0.000000
1.183593  0.000000  0.000000  0.000000  -57.988930  12.801360  -0.401243  43.681867  25.134989  18.249317  -78.645773  58.357838  143.151170  63.057916  0.000000
1.189289  0.000000  0.000000  0.000000  -57.942898  12.777545  -0.276540  43.734674  25.192641  18.281576  -79.144221  58.044383  144.126723  63.303002  0.000000
1.194986  0.000000  0.000000  0.000000  -57.904225  12.759229  -0.145982  43.788150  25.249861  18.317406  -79.653442  57.731704  145.087592  63.549197  0.000000
1.203196  0.000000  0.000000  0.000000  -57.861962  12.742256  0.052829  43.866892  25.329859  18.374487  -80.405493  57.286316  146.442713  63.905840  0.000000
1.211406  0.000000  0.000000  0.000000  -57.835621  12.736077  0.263730  43.947336  25.405832  18.436746  -81.178026  56.850281  147.758923  64.264292  0.000000
1.219617  0.000000  0.000000  0.000000  -57.824766  12.740212  0.485636  44.029005  25.476529  18.502868  -81.969836  56.427576  149.031557  64.623896  0.000000
1.227827  0.000000  0.000000  0.000000  -57.828485  12.754163  0.717050  44.111367  25.540776  18.571742  -82.779703  56.022241  150.256242  64.983633  0.000000
1.240811  0.000000  0.000000  0.000000  -57.860508  12.794769  1.097885  44.241367  25.626401  18.683566  -84.093596  55.427471  152.085502  65.548798  0.000000
1.253795  0.000000  0.000000  0.000000  -57.920464  12.856203  1.492442  44.369322  25.690635  18.796077  -85.443664  54.899198  153.776445  66.104710  0.000000
1.266779  0.000000  0.000000  0.000000  -58.003215  12.935470  1.894915  44.493231  25.732627  18.905568  -86.823364  54.448523  155.323361  66.645488  0.000000
1.279763  0.000000  0.000000  0.000000  -58.103955  13.028907  2.299171  44.611333  25.753375  19.008714  -88.224782  54.084426  156.723561  67.165706  0.000000
1.296621  0.000000  0.000000  0.000000  -58.254897  13.165234  2.816512  44.753496  25.752566  19.129234  -90.062957  53.750489  158.322325  67.803217  0.000000
1.301678  0.000000  0.000000  0.000000  -58.303381  13.208280  2.968085  44.793227  25.747067  19.161751  -90.615893  53.682505  158.753756  67.984791  0.000000
1.306736  0.000000  0.000000  0.000000  -58.352930  13.251843  3.117117  44.831426  25.739748  19.192484  -91.168383  53.629504  159.163440  68.161487  0.000000
1.311793  0.000000  0.000000  0.000000  -58.403312  13.295706  3.263177  44.867969  25.730892  19.221397  -91.719871  53.591565  159.551641  68.333066  0.000000
1.316851  0.000000  0.000000  0.000000  -58.454307  13.339680  3.405891  44.902777  25.720753  19.248462  -92.269889  53.568761  159.918612  68.499301  0.000000
1.321908  0.000000  0.000000  0.000000  -58.505712  13.383594  3.544915  44.935776  25.709589  19.273666  -92.818004  53.561117  160.264666  68.659978  0.000000
1.333321  0.000000  0.000000  0.000000  -58.621992  13.481411  3.843123  45.003086  25.682496  19.323748  -94.045218  53.599264  160.971565  69.000749  0.000000
1.344733  0.000000  0.000000  0.000000  -58.737597  13.576473  4.118184  45.060108  25.654908  19.364490  -95.257013  53.713519  161.579485  69.309985  0.000000
1.356145  0.000000  0.000000  0.000000  -58.851095  13.667401  4.367897  45.106269  25.630183  19.396104  -96.450675  53.902596  162.094275  69.585790  0.000000
1.367558  0.000000  0.000000  0.000000  -58.961361  13.753031  4.590538  45.141033  25.611807  19.418940  -97.624225  54.164707  162.522401  69.826421  0.000000
1.373077  0.000000  0.000000  0.000000  -59.013331  13.792327  4.688184  45.153645  25.606004  19.426921  -98.184291  54.317196  162.699894  69.929815  0.000000
1.378597  0.000000  0.000000  0.000000  -59.064278  13.830080  4.779060  45.163391  25.602965  19.433003  -98.739290  54.485946  162.859593  70.024424  0.000000
1.384116  0.000000  0.000000  0.000000  -59.114175  13.866247  4.863101  45.170201  25.603072  19.437250  -99.289224  54.670634  163.002301  70.110100  0.000000
1.389636  0.000000  0.000000  0.000000  -59.163015  13.900806  4.940263  45.174009  25.606703  19.439726  -99.834140  54.870915  163.128815  70.186704  0.000000
1.395395  0.000000  0.000000  0.000000  -59.212877  13.935151  5.013417  45.174694  25.614682  19.440491  -100.397524  55.096114  163.244495  70.256819  0.000000
1.401155  0.000000  0.000000  0.000000  -59.261663  13.967755  5.079044  45.171917  25.627389  19.439480  -100.955715  55.337427  163.344440  70.316770  0.000000
1.406914  0.000000  0.000000  0.000000  -59.309457  13.998651  5.137155  45.165570  25.645301  19.436776  -101.508928  55.594390  163.429646  70.366432  0.000000
1.412674  0.000000  0.000000  0.000000  -59.356371  14.027888  5.187771  45.155523  25.668923  19.432460  -102.057428  55.866511  163.501139  70.405700  0.000000
1.418230  0.000000  0.000000  0.000000  -59.400933  14.054586  5.229526  45.142172  25.697645  19.426829  -102.582451  56.142926  163.558115  70.433654  0.000000
1.423787  0.000000  0.000000  0.000000  -59.444966  14.079874  5.264350  45.125059  25.732726  19.419835  -103.103710  56.432479  163.604296  70.451802  0.000000
1.429344  0.000000  0.000000  0.000000  -59.488649  14.103835  5.292261  45.104009  25.774709  19.411562  -103.621550  56.734687  163.640630  70.460120  0.000000
1.434901  0.000000  0.000000  0.000000  -59.532180  14.126560  5.313263  45.078821  25.824166  19.402096  -104.136343  57.049050  163.668072  70.458612  0.000000
1.440088  0.000000  0.000000  0.000000  -59.572879  14.146747  5.326623  45.051363  25.877631  19.392239  -104.614521  57.353048  163.686527  70.448363  0.000000
1.445276  0.000000  0.000000  0.000000  -59.613846  14.166033  5.333925  45.019867  25.938706  19.381471  -105.090679  57.666741  163.698908  70.429630  0.000000
1.450464  0.000000  0.000000  0.000000  -59.655297  14.184507  5.335124  44.984094  26.007953  19.369871  -105.565141  57.989688  163.706006  70.402498  0.000000
1.455651  0.000000  0.000000  0.000000  -59.697462  14.202262  5.330157  44.943786  26.085961  19.357522  -106.038242  58.321434  163.708614  70.367080  0.000000
1.460502  0.000000  0.000000  0.000000  -59.737753  14.218295  5.319858  44.901734  26.167389  19.345357  -106.479627  58.639183  163.707706  70.326587  0.000000
1.465353  0.000000  0.000000  0.000000  -59.779107  14.233857  5.304000  44.855184  26.257596  19.332663  -106.920290  58.963820  163.704268  70.279113  0.000000
1.470204  0.000000  0.000000  0.000000  -59.821749  14.249022  5.282472  44.803849  26.357150  19.319524  -107.360463  59.294945  163.698961  70.224831  0.000000
1.475054  0.000000  0.000000  0.000000  -59.865912  14.263864  5.255146  44.747420  26.466640  19.306022  -107.800385  59.632151  163.692453  70.163936  0.000000
1.479812  0.000000  0.000000  0.000000  -59.910942  14.278168  5.222573  44.686805  26.584288  19.292488  -108.231727  59.968361  163.685581  70.098006  0.000000
1.484569  0.000000  0.000000  0.000000  -59.957923  14.292280  5.184120  44.620604  26.712743  19.278738  -108.663064  60.309622  163.678905  70.026164  0.000000
1.489326  0.000000  0.000000  0.000000  -60.007100  14.306252  5.139608  44.548436  26.852657  19.264852  -109.094479  60.655537  163.673093  69.948671  0.000000
